<?xml version="1.0" standalone="no"?>
<!DOCTYPE svg PUBLIC "-//W3C//DTD SVG 20010904//EN"
 "http://www.w3.org/TR/2001/REC-SVG-20010904/DTD/svg10.dtd">
<svg version="1.0" xmlns="http://www.w3.org/2000/svg"
 width="701.000000pt" height="438.000000pt" viewBox="0 0 701.000000 438.000000"
 preserveAspectRatio="xMidYMid meet">
<metadata>
Created by potrace 1.16, written by Peter Selinger 2001-2019
</metadata>
<g transform="translate(0.000000,438.000000) scale(0.100000,-0.100000)"
fill="#000000" stroke="none">
<path d="M2204 2896 c-198 -45 -392 -175 -518 -346 -62 -84 -97 -154 -132
-265 -27 -83 -29 -102 -29 -245 0 -131 4 -167 23 -233 66 -228 216 -418 424
-535 161 -92 399 -127 590 -87 78 16 158 45 158 57 0 4 8 5 18 2 14 -5 15 -4
2 5 -12 9 -10 11 13 11 32 0 72 19 137 64 188 131 319 327 366 546 18 84 18
266 0 350 -54 255 -224 478 -451 594 -27 13 -54 22 -60 19 -7 -2 -15 3 -18 11
-4 9 -14 16 -24 16 -16 0 -16 -2 -3 -11 12 -9 12 -10 -3 -5 -10 3 -21 6 -23 6
-3 0 -2 5 2 12 5 8 0 9 -15 5 -13 -3 -20 -3 -17 0 32 32 -323 55 -440 29z
m351 -31 c313 -60 570 -305 655 -625 28 -104 31 -287 6 -391 -50 -211 -179
-395 -370 -526 -33 -23 -68 -43 -77 -43 -9 0 -32 -11 -51 -24 -19 -13 -53 -26
-74 -30 -172 -29 -299 -32 -379 -10 l-50 13 51 -4 c74 -7 239 12 314 37 272
89 479 304 552 576 30 113 30 308 0 416 -41 145 -113 267 -215 368 -154 152
-343 230 -557 231 -111 1 -239 -20 -217 -36 7 -5 -2 -6 -23 -2 -26 5 -31 4
-20 -4 18 -13 1 -14 -19 -2 -13 9 66 39 154 60 63 14 236 12 320 -4z m-79 -56
c310 -57 573 -322 629 -634 18 -95 10 -252 -15 -345 -73 -260 -276 -465 -535
-540 -99 -29 -257 -36 -369 -16 -49 8 -93 13 -97 10 -5 -3 -17 0 -26 5 -10 6
-13 11 -8 11 21 1 -21 20 -44 20 -15 0 -21 4 -15 9 5 5 46 1 99 -10 108 -22
186 -24 280 -5 78 16 135 33 120 36 -5 1 1 6 15 10 24 8 23 8 -8 9 -18 1 -31
-3 -28 -8 3 -4 -6 -6 -21 -3 -14 3 -23 1 -20 -4 10 -17 -232 -17 -312 0 -146
31 -305 129 -402 249 -53 66 -120 198 -140 277 -22 88 -17 269 10 360 74 244
265 426 511 486 75 19 229 17 309 -2 88 -21 213 -83 283 -139 66 -53 158 -172
194 -249 97 -212 81 -481 -38 -667 -73 -113 -183 -218 -276 -261 -31 -15 -40
-24 -33 -31 8 -8 27 -3 66 18 137 74 269 218 326 354 48 114 62 197 56 336 -4
106 -8 130 -38 210 -42 109 -113 218 -182 281 -68 62 -167 126 -185 119 -7 -2
-11 -1 -8 4 3 5 -6 14 -22 19 -62 22 -67 24 -42 8 30 -18 21 -21 -14 -5 -14 7
-23 16 -19 22 3 5 -3 6 -17 2 -14 -4 -20 -3 -17 3 8 12 -113 32 -197 32 -69 0
-173 -19 -245 -45 -62 -21 -62 -12 -2 16 28 12 51 29 51 37 0 10 8 13 24 10
13 -3 53 1 88 8 80 15 237 17 314 3z"/>
<path d="M2190 2600 c-25 -5 -71 -19 -103 -31 -47 -18 -63 -20 -83 -10 -19 8
-32 8 -58 -3 -36 -15 -44 -29 -48 -88 -1 -21 -6 -38 -10 -38 -4 0 -7 -5 -5
-12 1 -6 -9 -14 -23 -18 -17 -4 -21 -8 -12 -13 7 -5 25 2 45 17 21 16 40 23
54 20 11 -3 34 1 51 10 44 23 64 20 142 -19 59 -30 70 -39 70 -61 0 -35 -106
-154 -138 -154 -15 0 -22 -5 -19 -12 2 -7 -5 -18 -16 -24 -17 -10 -17 -12 -3
-17 9 -4 16 -2 16 3 0 6 9 10 20 10 25 0 46 -36 30 -55 -8 -10 -8 -15 2 -19 7
-3 3 -3 -9 0 -13 3 -23 1 -23 -4 0 -6 -7 -12 -15 -16 -10 -4 -15 1 -15 15 0
11 4 17 10 14 5 -3 7 0 4 9 -3 9 -12 12 -22 9 -11 -5 -14 -2 -9 10 3 9 3 16
-1 15 -4 -1 -15 2 -25 7 -11 4 -61 5 -112 2 -119 -7 -127 -1 -99 81 10 31 18
62 17 69 0 7 4 11 10 10 6 -1 13 6 15 16 2 9 -1 17 -7 17 -22 0 -50 -39 -72
-100 -15 -41 -29 -64 -44 -70 -27 -10 -42 -28 -50 -61 -5 -21 0 -34 24 -62 23
-26 31 -45 31 -73 1 -98 60 -240 135 -322 32 -36 48 -63 50 -84 4 -48 39 -72
93 -64 28 4 53 1 71 -8 54 -28 181 -48 264 -41 42 4 77 11 77 15 0 10 -53 20
-110 20 -104 0 -258 48 -242 76 4 8 45 32 90 54 45 21 82 44 82 50 0 5 8 10
18 10 25 1 56 26 41 35 -6 4 -15 1 -20 -6 -5 -8 -9 -11 -9 -7 0 4 -35 -10 -77
-31 -102 -51 -124 -56 -162 -37 -31 16 -31 17 -31 94 1 92 21 209 48 277 15
38 26 51 47 57 15 4 38 17 51 29 19 18 30 21 66 15 57 -9 204 -54 249 -77 87
-43 60 -110 -99 -245 -50 -43 -59 -54 -41 -54 25 0 144 94 194 154 29 35 37
39 52 30 10 -6 21 -28 24 -48 7 -44 13 -50 35 -42 14 5 16 15 11 56 -6 47 -5
50 13 40 11 -6 46 -35 77 -64 l58 -54 -18 -37 c-24 -50 -86 -125 -103 -125
-10 0 -14 15 -14 56 0 47 -3 55 -17 52 -12 -2 -21 -19 -28 -55 -6 -32 -19 -60
-33 -73 -12 -12 -25 -34 -29 -50 -4 -24 -15 -33 -67 -54 -33 -14 -55 -25 -48
-26 7 0 10 -4 7 -10 -8 -13 -7 -13 60 10 42 15 67 18 89 12 37 -10 54 -6 84
21 14 13 22 32 22 52 0 22 9 40 31 61 154 147 204 431 110 631 -22 47 -25 63
-17 86 14 38 -18 81 -65 85 -43 4 -69 28 -69 62 0 15 -10 36 -25 50 -22 21
-29 22 -60 13 -29 -9 -46 -7 -105 13 -80 28 -208 39 -280 24z m215 -52 c47
-10 105 -34 105 -43 0 -2 -38 -22 -85 -44 -74 -34 -89 -39 -110 -29 -19 8 -32
8 -51 -1 -23 -10 -33 -8 -68 10 -22 12 -63 29 -90 39 -28 9 -51 21 -53 27 -5
14 79 42 159 52 67 9 113 6 193 -11z m139 -114 c14 -9 40 -14 63 -12 l38 3 3
-45 c2 -25 11 -53 19 -63 15 -16 15 -22 -3 -73 -26 -78 -76 -168 -95 -172 -9
-2 -21 9 -28 24 -22 49 -79 128 -134 186 -72 77 -69 98 17 139 70 33 87 35
120 13z m-162 -194 c52 -58 124 -168 115 -176 -3 -3 -47 10 -99 29 -51 19
-127 40 -168 47 -74 12 -100 23 -100 42 0 5 22 33 50 62 48 51 52 53 101 52
50 -1 54 -4 101 -56z m398 -27 c31 -82 39 -159 29 -253 -5 -47 -14 -89 -19
-94 -7 -7 -22 1 -42 20 -18 17 -50 43 -70 59 -22 15 -38 36 -38 47 0 11 -5 28
-10 38 -8 16 -2 36 28 97 22 43 45 96 52 118 7 22 15 44 18 49 8 13 29 -21 52
-81z m-767 -128 c9 -19 12 -34 6 -32 -30 6 -79 -191 -81 -325 -1 -57 -6 -88
-13 -88 -12 0 -68 72 -102 130 -47 80 -92 270 -64 270 6 0 20 15 31 33 17 29
25 34 67 36 26 1 49 4 52 7 2 2 23 4 46 4 37 0 43 -3 58 -35z"/>
<path d="M3337 2643 c-13 -12 -7 -23 17 -34 31 -14 45 -48 107 -249 27 -91 55
-180 60 -197 9 -27 16 -33 38 -33 26 0 29 5 80 161 30 88 57 157 62 152 4 -4
28 -64 54 -133 71 -193 64 -181 94 -178 28 3 34 17 116 278 51 164 61 185 101
204 19 9 32 21 29 26 -8 12 -175 13 -194 1 -17 -11 -6 -31 18 -31 29 0 44 -26
37 -63 -3 -19 -20 -78 -37 -133 l-32 -99 -13 30 c-8 17 -37 90 -65 163 -51
131 -62 146 -95 124 -6 -4 -28 -61 -48 -127 -60 -195 -66 -204 -86 -137 -6 20
-18 54 -27 74 -14 32 -18 35 -34 25 -15 -9 -18 -20 -14 -42 4 -24 3 -26 -4
-10 -6 13 -10 15 -10 5 -1 -10 -4 -11 -12 -3 -18 18 16 83 43 83 15 0 18 4 13
18 -4 9 -9 33 -12 53 -5 33 -3 37 21 43 14 3 26 13 26 21 0 12 -20 15 -113 15
-63 0 -117 -3 -120 -7z"/>
<path d="M4115 2641 c-9 -16 3 -31 25 -31 10 0 21 -7 24 -16 3 -9 6 -102 6
-209 0 -201 -2 -208 -45 -217 -11 -2 -20 -10 -20 -18 0 -13 28 -16 171 -18 94
-2 187 1 205 5 31 9 35 14 51 71 19 72 8 92 -28 46 -57 -73 -59 -74 -127 -74
-36 0 -68 5 -75 12 -8 8 -12 45 -12 100 l0 88 45 0 c47 0 85 -25 85 -56 0 -9
7 -14 18 -12 14 3 17 17 20 91 1 48 -1 87 -5 87 -16 0 -32 -16 -42 -43 -10
-25 -15 -27 -66 -27 -55 0 -55 0 -55 31 0 24 -3 30 -16 25 -9 -3 -20 -6 -25
-6 -5 0 -9 -7 -9 -15 0 -8 -4 -15 -10 -15 -5 0 -10 -7 -10 -16 0 -8 -4 -12
-10 -9 -5 3 -10 15 -10 26 0 10 5 19 10 19 6 0 10 7 10 15 0 14 12 19 33 16 4
0 7 8 7 19 0 13 5 18 15 14 12 -5 15 3 15 40 l0 46 53 0 c60 0 89 -16 107 -60
27 -64 61 -14 45 67 -5 30 -9 33 -41 33 -19 0 -33 -4 -29 -9 3 -5 0 -13 -6
-17 -6 -3 -15 0 -20 7 -11 18 -273 27 -284 10z"/>
<path d="M4594 2638 c-4 -6 -2 -14 5 -16 8 -3 22 -13 32 -23 17 -17 19 -37 19
-215 l0 -196 -30 -11 c-19 -7 -29 -18 -28 -27 3 -13 25 -15 138 -15 186 1 255
27 299 112 29 57 -4 131 -71 158 l-41 16 29 18 c61 37 79 97 47 152 -26 44
-95 63 -118 33 -9 -13 -16 -14 -31 -6 -11 7 -13 12 -6 12 7 0 10 5 7 10 -9 15
-242 13 -251 -2z m249 -39 c51 -23 63 -104 22 -145 -20 -20 -34 -25 -63 -22
-36 3 -37 4 -42 50 -3 25 -4 65 -2 87 4 37 7 41 33 41 15 0 39 -5 52 -11z m16
-224 c73 -37 62 -188 -14 -195 -63 -6 -75 12 -75 121 l0 89 30 0 c17 0 44 -7
59 -15z"/>
<path d="M3366 1888 c-10 -50 -16 -125 -10 -131 10 -9 44 12 44 27 0 7 9 25
21 40 17 21 29 26 65 26 l44 0 0 -211 0 -210 -36 -15 c-19 -8 -34 -20 -32 -26
4 -10 38 -12 256 -8 24 0 12 28 -15 35 -53 13 -53 13 -53 231 l0 204 34 0 c51
0 65 -8 88 -54 25 -51 22 -48 42 -40 12 5 16 20 16 68 0 75 -9 93 -38 77 -11
-6 -54 -11 -94 -12 -40 0 -67 -3 -60 -6 18 -7 15 -21 -8 -28 -11 -3 -20 -13
-20 -21 0 -8 -4 -14 -10 -14 -5 0 -10 -7 -10 -15 0 -8 -4 -15 -10 -15 -5 0
-10 6 -10 13 0 8 -4 7 -10 -3 -8 -11 -9 -9 -8 13 2 28 13 36 21 15 4 -10 7
-10 18 0 9 9 10 12 1 12 -7 0 -12 5 -12 10 0 6 6 10 14 10 8 0 16 7 20 15 5
13 -10 15 -99 15 -58 0 -107 4 -110 10 -11 18 -35 11 -39 -12z"/>
<path d="M4575 1886 c-134 -42 -207 -135 -207 -261 0 -111 49 -186 151 -234
48 -22 69 -25 151 -25 125 1 150 14 173 87 21 65 21 64 2 71 -10 3 -25 -10
-45 -39 -17 -25 -44 -52 -60 -60 -80 -42 -182 8 -226 110 -10 22 -17 43 -16
48 3 11 -16 9 -23 -3 -3 -5 -2 -10 4 -10 6 0 8 -7 5 -15 -4 -8 -12 -15 -20
-15 -22 0 -16 37 8 54 12 9 20 16 16 16 -9 0 19 136 35 167 28 53 63 76 119
80 65 5 113 -17 146 -67 13 -19 31 -35 40 -35 14 0 16 8 14 45 -2 25 -5 52 -8
61 -6 22 -44 32 -51 13 -3 -8 -12 -14 -20 -14 -12 0 -13 3 -4 13 6 8 8 17 4
20 -11 12 -146 6 -188 -7z"/>
<path d="M3886 1875 c-4 -12 3 -19 24 -27 l30 -10 0 -208 0 -208 -30 -7 c-30
-7 -47 -21 -37 -32 10 -9 398 -6 407 3 8 9 40 109 40 127 0 22 -36 -2 -65 -43
l-32 -45 -71 -3 c-88 -4 -94 5 -90 116 l3 77 50 0 c51 0 48 3 82 -63 1 -2 10
-1 20 2 16 5 18 15 15 88 -2 45 -4 84 -6 85 -7 8 -36 -10 -36 -22 0 -28 -31
-45 -81 -45 l-49 0 -1 43 c-1 36 -2 38 -9 17 -4 -14 -9 -18 -9 -10 -1 12 -4
11 -12 -3 -6 -10 -8 -25 -5 -33 3 -9 1 -12 -4 -9 -12 8 -13 75 -1 75 5 0 11
10 15 23 5 18 8 20 16 7 7 -11 10 -2 10 33 l0 47 53 0 c60 0 89 -16 107 -60 8
-19 19 -30 29 -28 13 3 16 16 16 63 l0 60 -186 3 c-162 2 -187 0 -193 -13z"/>
<path d="M4925 1880 c-9 -15 4 -30 25 -30 10 0 21 -4 24 -9 3 -5 6 -85 7 -177
1 -259 4 -240 -31 -253 -16 -5 -30 -14 -30 -20 0 -10 170 -19 223 -12 35 4 35
24 -2 38 -26 9 -30 17 -36 64 -4 30 -5 74 -3 99 l3 45 100 0 100 0 3 -70 c5
-103 -2 -128 -39 -142 -17 -7 -29 -18 -27 -25 3 -9 35 -12 119 -11 63 1 117 2
122 3 19 1 4 29 -22 38 l-29 10 -4 194 c-2 106 0 201 4 210 5 10 20 21 33 24
14 3 25 12 25 20 0 11 -23 14 -112 14 -115 0 -158 -10 -128 -30 8 -5 21 -10
28 -10 7 0 17 -12 22 -26 12 -31 13 -141 2 -148 -5 -3 -59 -6 -119 -7 l-111
-1 -18 -34 c-18 -32 -33 -42 -47 -28 -10 10 4 34 20 34 10 0 13 6 9 16 -3 9
-2 12 4 9 6 -4 13 8 17 26 5 28 8 30 18 15 16 -21 25 -20 23 2 -1 9 0 43 0 74
2 56 3 58 37 72 19 8 35 20 35 25 0 14 -236 15 -245 1z"/>
</g>
</svg>
