<?xml version="1.0" encoding="UTF-8"?>
<svg width="60px" height="60px" viewBox="0 0 60 60" version="1.1" xmlns="http://www.w3.org/2000/svg" xmlns:xlink="http://www.w3.org/1999/xlink">
    <!-- Generator: Sketch 47.1 (45422) - http://www.bohemiancoding.com/sketch -->
    <title>WhatsApp</title>
    <desc>Created with Sketch.</desc>
    <defs></defs>
    <g id="Page-1" stroke="none" stroke-width="1" fill="none" fill-rule="evenodd">
        <g id="Social_icons" transform="translate(-400.000000, -100.000000)">
            <g id="WhatsApp" transform="translate(400.000000, 100.000000)">
                <circle id="Oval" fill="#25D366" cx="30" cy="30" r="30"></circle>
                <path d="M30.9888438,46.6906459 L30.9814635,46.6906459 C27.9958808,46.6896161 25.0622518,45.9405344 22.4566852,44.5193146 L13,47 L15.5307684,37.7560558 C13.9696665,35.0506494 13.1482236,31.9818582 13.1495623,28.8378054 C13.1534756,19.0021168 21.1560215,11 30.9886721,11 C35.7607987,11.0020596 40.2397734,12.8598318 43.6077579,16.2317638 C46.9757423,19.6035242 48.8295669,24.0854168 48.8276789,28.8518794 C48.8237313,38.6853367 40.8243607,46.6866297 30.9888438,46.6906459 L30.9888438,46.6906459 Z M22.8948338,41.2898564 L23.4362549,41.6111906 C25.7127296,42.9620917 28.3222438,43.676898 30.9828365,43.6779278 L30.9888438,43.6779278 C39.1610504,43.6779278 45.8124035,37.0264203 45.8156645,28.8508496 C45.8172092,24.8890097 44.276446,21.1638538 41.4770868,18.3612335 C38.6777276,15.5586132 34.9549745,14.0144173 30.9946793,14.0130442 C22.8161565,14.0130442 16.1647177,20.6638824 16.1614738,28.8388352 C16.1603238,31.64046 16.9442131,34.3688998 18.4284227,36.729544 L18.78096,37.2905315 L17.2831054,42.7619315 L22.8948338,41.2898564 Z M39.9759712,33.0939127 C39.8645804,32.907981 39.567481,32.7964357 39.1217461,32.5732422 C38.6760112,32.3501516 36.4845815,31.2719606 36.0759197,31.1230677 C35.6674295,30.9743807 35.3701585,30.9000801 35.0730591,31.3461582 C34.7759597,31.7923222 33.9217347,32.7964357 33.6617083,33.0939127 C33.401682,33.3913039 33.1416557,33.4286515 32.6960925,33.205458 C32.2503576,32.9823674 30.8141198,32.5117284 29.1115567,30.993106 C27.7864695,29.8111448 26.8919103,28.3515647 26.6319011,27.9053149 C26.371892,27.4590652 26.6041822,27.2179186 26.8273242,26.9956519 C27.027862,26.7958693 27.2730934,26.4749128 27.4959437,26.2147148 C27.718794,25.9545168 27.7930774,25.768465 27.9416614,25.471194 C28.0902283,25.1735797 28.015962,24.9133818 27.9045025,24.6902569 C27.7930774,24.467132 26.9016591,22.2731278 26.5302248,21.3806282 C26.1683849,20.5114709 25.8009325,20.6292122 25.5273471,20.6154814 C25.2676469,20.6024372 24.9701699,20.5996911 24.6730534,20.5996911 C24.3759197,20.5996911 23.8929916,20.7112535 23.4844327,21.1575033 C23.0758739,21.6037531 21.924395,22.6821328 21.924395,24.8759654 C21.924395,27.0699697 23.5215573,29.1894845 23.7444419,29.4869272 C23.9672922,29.7845414 26.8874821,34.2866182 31.3588878,36.2173523 C32.4223354,36.6766291 33.2525316,36.9508839 33.8999371,37.156279 C34.9676755,37.4956176 35.9394702,37.4477316 36.7073631,37.3329081 C37.5638194,37.2049888 39.3445277,36.2547171 39.7161165,35.2135648 C40.087362,34.1722066 40.087362,33.2797586 39.9759712,33.0939127 L39.9759712,33.0939127 Z" id="Page-1" fill="#FDFDFD"></path>
            </g>
        </g>
    </g>
</svg>